# xmcd
#
# Track frame offsets:
#	150
#	11095
#	27175
#	38605
#	53090
#	66865
#	79325
#	88980
#	100390
#	113670
#	125785
#	136265
#	152775
#	164765
#	178215
#	190915
#	202120
#	220170
#	234190
#	246230
#	257865
#	265730
#	277135
#	290545
#
# Disc length: 4022 seconds
#
# Revision: 1
# Processed by: cddbd v1.5.2PL0 Copyright (c) Steve Scherf et al.
# Submitted via: audiograbber 1.82.02
#
DISCID=6e0fb418
DTITLE=Reg Lindsay - Lifetime Of Country Music
DYEAR=1978
DGENRE=Country
TTITLE0=Today I Started Loving You Again
TTITLE1=Sunday Morning Coming Down
TTITLE2=Take These Chains From My Heart
TTITLE3=Could I Have This Dance
TTITLE4=Misty
TTITLE5=Are You Lonesome Tonight
TTITLE6=Suvla Bay
TTITLE7=Behind Closed Doors
TTITLE8=Empty Arms Hotel
TTITLE9=Armstrong
TTITLE10=Eighteen Yellow Roses
TTITLE11=Before The Dawn
TTITLE12=Daddy, Don't You Walk So Fast
TTITLE13=Another Somebody Does Somebody Wrong
TTITLE14=July, You're A Women
TTITLE15=Room Full Of Roses
TTITLE16=Silence On The Line
TTITLE17=One Day At A Time
TTITLE18=Too Many Memories
TTITLE19=Put Your Hand In The Hand
TTITLE20=Blackboard Of My Heart
TTITLE21=I Shall Not Be Moved
TTITLE22=Don't Let Me Cross Over
TTITLE23=Houston
EXTD=
EXTT0=
EXTT1=
EXTT2=
EXTT3=
EXTT4=
EXTT5=
EXTT6=
EXTT7=
EXTT8=
EXTT9=
EXTT10=
EXTT11=
EXTT12=
EXTT13=
EXTT14=
EXTT15=
EXTT16=
EXTT17=
EXTT18=
EXTT19=
EXTT20=
EXTT21=
EXTT22=
EXTT23=
PLAYORDER=
